<?xml version="1.0" encoding="UTF-8" standalone="no"?> 
<svg id="Layer_1" data-name="Layer 1" xmlns="http://www.w3.org/2000/svg" viewBox="0 0 24 24" fill="#fff">
<path d="M20.18,5h-2l0-.25A2.19,2.19,0,0,0,16,3H8A2.19,2.19,0,0,0,5.83,4.75l0,.25h-2A2.83,2.83,0,0,0,1,7.82V18.18A2.83,2.83,0,0,0,3.82,21H20.18A2.83,2.83,0,0,0,23,18.18V7.82A2.83,2.83,0,0,0,20.18,5ZM21,18.18a.82.82,0,0,1-.82.82H3.82A.82.82,0,0,1,3,18.18V7.82A.82.82,0,0,1,3.82,7h3.6l.37-1.85A.18.18,0,0,1,8,5H16a.18.18,0,0,1,.18.15L16.58,7h3.6a.82.82,0,0,1,.82.82Z"/>
<path d="M12,7a5,5,0,1,0,5,5A5,5,0,0,0,12,7Zm0,8a3,3,0,1,1,3-3A3,3,0,0,1,12,15Z"/>
</svg>